<svg width="212" height="80" viewBox="0 0 212 80" fill="none" xmlns="http://www.w3.org/2000/svg">
<rect x="0.5" y="0.5" width="211" height="79" stroke="#D9D9D9"/>
<path d="M57.627 58.6406L50.373 65.8945L43.1191 58.6406L50.373 51.3867L57.627 58.6406ZM57.627 43.0654L50.373 50.3193L43.1191 43.0654L50.373 35.8115L57.627 43.0654ZM75.293 46.6758H65.0342V36.417H75.293V46.6758ZM34.2588 46.5234H24V36.2646H34.2588V46.5234ZM44.5176 35.3525H34.2588V25.0947H44.5176V35.3525ZM65.0342 35.3525H54.7764V25.0947H65.0342V35.3525ZM54.6758 24.2588H44.418V14H54.6758V24.2588Z" fill="black"/>
<path d="M112 33C112.133 33.5333 112.2 34.2 112.2 35C112.2 35.7667 112.133 36.4333 112 37C112.133 37.5333 112.2 38.2 112.2 39C112.2 39.7667 112.133 40.4333 112 41C112.133 41.5333 112.2 42.2 112.2 43C112.2 43.7667 112.133 44.4333 112 45C112.133 45.5333 112.2 46.2 112.2 47C112.2 47.7667 112.133 48.4333 112 49C112.133 49.5333 112.2 50.2 112.2 51C112.2 51.7667 112.133 52.4333 112 53H110C110.133 53.5333 110.2 54.2 110.2 55C110.2 55.7667 110.133 56.4333 110 57H98C97.8667 56.4333 97.8 55.7667 97.8 55C97.8 54.2 97.8667 53.5333 98 53H96C95.8667 52.4333 95.8 51.7667 95.8 51C95.8 50.2 95.8667 49.5333 96 49C95.8667 48.4333 95.8 47.7667 95.8 47C95.8 46.2 95.8667 45.5333 96 45C95.8667 44.4333 95.8 43.7667 95.8 43C95.8 42.2 95.8667 41.5333 96 41C95.8667 40.4333 95.8 39.7667 95.8 39C95.8 38.2 95.8667 37.5333 96 37C95.8667 36.4333 95.8 35.7667 95.8 35C95.8 34.2 95.8667 33.5333 96 33C95.8667 32.4333 95.8 31.7667 95.8 31C95.8 30.2 95.8667 29.5333 96 29H100C100.133 29.5333 100.2 30.2 100.2 31C100.2 31.7667 100.133 32.4333 100 33C100.133 33.5333 100.2 34.2 100.2 35C100.2 35.7667 100.133 36.4333 100 37C100.133 37.5333 100.2 38.2 100.2 39C100.2 39.7667 100.133 40.4333 100 41C100.133 41.5333 100.2 42.2 100.2 43C100.2 43.7667 100.133 44.4333 100 45C100.133 45.5333 100.2 46.2 100.2 47C100.2 47.7667 100.133 48.4333 100 49C100.133 49.5333 100.2 50.2 100.2 51C100.2 51.7667 100.133 52.4333 100 53H108C107.867 52.4333 107.8 51.7667 107.8 51C107.8 50.2 107.867 49.5333 108 49C107.867 48.4333 107.8 47.7667 107.8 47C107.8 46.2 107.867 45.5333 108 45C107.867 44.4333 107.8 43.7667 107.8 43C107.8 42.2 107.867 41.5333 108 41C107.867 40.4333 107.8 39.7667 107.8 39C107.8 38.2 107.867 37.5333 108 37C107.867 36.4333 107.8 35.7667 107.8 35C107.8 34.2 107.867 33.5333 108 33C107.867 32.4333 107.8 31.7667 107.8 31C107.8 30.2 107.867 29.5333 108 29H112C112.133 29.5333 112.2 30.2 112.2 31C112.2 31.7667 112.133 32.4333 112 33ZM124.42 51C124.42 51.7667 124.353 52.4333 124.22 53C124.353 53.5333 124.42 54.2 124.42 55C124.42 55.7667 124.353 56.4333 124.22 57H119.22C119.086 56.4333 119.02 55.7667 119.02 55C119.02 54.2 119.086 53.5333 119.22 53C119.086 52.4333 119.02 51.7667 119.02 51C119.02 50.2 119.086 49.5333 119.22 49H124.22C124.353 49.5333 124.42 50.2 124.42 51ZM147.639 31C147.639 31.7667 147.572 32.4333 147.439 33H141.439C141.572 33.5333 141.639 34.2 141.639 35C141.639 35.7667 141.572 36.4333 141.439 37C141.572 37.5333 141.639 38.2 141.639 39C141.639 39.7667 141.572 40.4333 141.439 41C141.572 41.5333 141.639 42.2 141.639 43C141.639 43.7667 141.572 44.4333 141.439 45C141.572 45.5333 141.639 46.2 141.639 47C141.639 47.7667 141.572 48.4333 141.439 49C141.572 49.5333 141.639 50.2 141.639 51C141.639 51.7667 141.572 52.4333 141.439 53C141.572 53.5333 141.639 54.2 141.639 55C141.639 55.7667 141.572 56.4333 141.439 57H137.439C137.306 56.4333 137.239 55.7667 137.239 55C137.239 54.2 137.306 53.5333 137.439 53C137.306 52.4333 137.239 51.7667 137.239 51C137.239 50.2 137.306 49.5333 137.439 49C137.306 48.4333 137.239 47.7667 137.239 47C137.239 46.2 137.306 45.5333 137.439 45C137.306 44.4333 137.239 43.7667 137.239 43C137.239 42.2 137.306 41.5333 137.439 41C137.306 40.4333 137.239 39.7667 137.239 39C137.239 38.2 137.306 37.5333 137.439 37C137.306 36.4333 137.239 35.7667 137.239 35C137.239 34.2 137.306 33.5333 137.439 33H131.439C131.306 32.4333 131.239 31.7667 131.239 31C131.239 30.2 131.306 29.5333 131.439 29H147.439C147.572 29.5333 147.639 30.2 147.639 31ZM165.159 41C165.292 41.5333 165.359 42.2 165.359 43C165.359 43.7667 165.292 44.4333 165.159 45C165.292 45.5333 165.359 46.2 165.359 47C165.359 47.7667 165.292 48.4333 165.159 49H163.659C163.792 49.5333 163.859 50.2 163.859 51C163.859 51.7667 163.792 52.4333 163.659 53H161.159C161.292 53.5333 161.359 54.2 161.359 55C161.359 55.7667 161.292 56.4333 161.159 57H153.159C153.025 56.4333 152.959 55.7667 152.959 55C152.959 54.2 153.025 53.5333 153.159 53H150.659C150.525 52.4333 150.459 51.7667 150.459 51C150.459 50.2 150.525 49.5333 150.659 49H149.159C149.025 48.4333 148.959 47.7667 148.959 47C148.959 46.2 149.025 45.5333 149.159 45C149.025 44.4333 148.959 43.7667 148.959 43C148.959 42.2 149.025 41.5333 149.159 41C149.025 40.4333 148.959 39.7667 148.959 39C148.959 38.2 149.025 37.5333 149.159 37H150.659C150.525 36.4333 150.459 35.7667 150.459 35C150.459 34.2 150.525 33.5333 150.659 33H153.159C153.025 32.4333 152.959 31.7667 152.959 31C152.959 30.2 153.025 29.5333 153.159 29H161.159C161.292 29.5333 161.359 30.2 161.359 31C161.359 31.7667 161.292 32.4333 161.159 33H163.659C163.792 33.5333 163.859 34.2 163.859 35C163.859 35.7667 163.792 36.4333 163.659 37H165.159C165.292 37.5333 165.359 38.2 165.359 39C165.359 39.7667 165.292 40.4333 165.159 41ZM161.159 49C161.025 48.4333 160.959 47.7667 160.959 47C160.959 46.2 161.025 45.5333 161.159 45C161.025 44.4333 160.959 43.7667 160.959 43C160.959 42.2 161.025 41.5333 161.159 41C161.025 40.4333 160.959 39.7667 160.959 39C160.959 38.2 161.025 37.5333 161.159 37H159.659C159.525 36.4333 159.459 35.7667 159.459 35C159.459 34.2 159.525 33.5333 159.659 33H154.659C154.792 33.5333 154.859 34.2 154.859 35C154.859 35.7667 154.792 36.4333 154.659 37H153.159C153.292 37.5333 153.359 38.2 153.359 39C153.359 39.7667 153.292 40.4333 153.159 41C153.292 41.5333 153.359 42.2 153.359 43C153.359 43.7667 153.292 44.4333 153.159 45C153.292 45.5333 153.359 46.2 153.359 47C153.359 47.7667 153.292 48.4333 153.159 49H154.659C154.792 49.5333 154.859 50.2 154.859 51C154.859 51.7667 154.792 52.4333 154.659 53H159.659C159.525 52.4333 159.459 51.7667 159.459 51C159.459 50.2 159.525 49.5333 159.659 49H161.159ZM183.078 35C183.078 35.7667 183.011 36.4333 182.878 37C183.011 37.5333 183.078 38.2 183.078 39C183.078 39.7667 183.011 40.4333 182.878 41H180.878C181.011 41.5333 181.078 42.2 181.078 43C181.078 43.7667 181.011 44.4333 180.878 45H170.878C171.011 45.5333 171.078 46.2 171.078 47C171.078 47.7667 171.011 48.4333 170.878 49C171.011 49.5333 171.078 50.2 171.078 51C171.078 51.7667 171.011 52.4333 170.878 53C171.011 53.5333 171.078 54.2 171.078 55C171.078 55.7667 171.011 56.4333 170.878 57H166.878C166.745 56.4333 166.678 55.7667 166.678 55C166.678 54.2 166.745 53.5333 166.878 53C166.745 52.4333 166.678 51.7667 166.678 51C166.678 50.2 166.745 49.5333 166.878 49C166.745 48.4333 166.678 47.7667 166.678 47C166.678 46.2 166.745 45.5333 166.878 45C166.745 44.4333 166.678 43.7667 166.678 43C166.678 42.2 166.745 41.5333 166.878 41C166.745 40.4333 166.678 39.7667 166.678 39C166.678 38.2 166.745 37.5333 166.878 37C166.745 36.4333 166.678 35.7667 166.678 35C166.678 34.2 166.745 33.5333 166.878 33C166.745 32.4333 166.678 31.7667 166.678 31C166.678 30.2 166.745 29.5333 166.878 29H180.878C181.011 29.5333 181.078 30.2 181.078 31C181.078 31.7667 181.011 32.4333 180.878 33H182.878C183.011 33.5333 183.078 34.2 183.078 35ZM178.878 41C178.745 40.4333 178.678 39.7667 178.678 39C178.678 38.2 178.745 37.5333 178.878 37C178.745 36.4333 178.678 35.7667 178.678 35C178.678 34.2 178.745 33.5333 178.878 33H170.878C171.011 33.5333 171.078 34.2 171.078 35C171.078 35.7667 171.011 36.4333 170.878 37C171.011 37.5333 171.078 38.2 171.078 39C171.078 39.7667 171.011 40.4333 170.878 41H178.878Z" fill="black"/>
</svg>
